<svg xmlns="http://www.w3.org/2000/svg" viewBox="0 0 64 64" fill="none">
  <rect width="64" height="64" rx="12" fill="#fff5f4"/>
  <path d="M32 16v32" stroke="#d94a3e" stroke-width="2"/>
  <path d="M32 16C26 16 18 18 18 22v26c0-4 8-6 14-6V16z" fill="#ef5d50" opacity=".2"/>
  <path d="M32 16c6 0 14 2 14 6v26c0-4-8-6-14-6V16z" fill="#ef5d50" opacity=".2"/>
  <path d="M32 16C26 16 18 18 18 22v26c0-4 8-6 14-6V16z" fill="#ef5d50"/>
  <path d="M32 16c6 0 14 2 14 6v26c0-4-8-6-14-6V16z" fill="#ef5d50"/>
  <path d="M22 26h6M22 32h6M36 26h6M36 32h5" stroke="#fff" stroke-width="1.5" stroke-linecap="round"/>
</svg>
