<svg xmlns="http://www.w3.org/2000/svg" viewBox="0 0 64 64" fill="none">
  <rect width="64" height="64" rx="12" fill="#fff5f4"/>
  <path d="M32 14c-8 0-14 6-14 14 0 10 14 22 14 22s14-12 14-22c0-8-6-14-14-14z" fill="#ef5d50" opacity=".15"/>
  <path d="M32 16c-7 0-12 5-12 12 0 8 12 20 12 20s12-12 12-20c0-7-5-12-12-12z" fill="#ef5d50"/>
  <path d="M32 22c-3 0-5 2-5 5s2 5 5 5 5-2 5-5-2-5-5-5z" fill="#fff"/>
  <path d="M28 38c2 2 8 2 10 0" stroke="#d94a3e" stroke-width="2" stroke-linecap="round"/>
  <path d="M26 30l-4-2M38 30l4-2" stroke="#1a2b3c" stroke-width="1.5" stroke-linecap="round"/>
</svg>
