<svg xmlns="http://www.w3.org/2000/svg" viewBox="0 0 64 64" fill="none">
  <rect width="64" height="64" rx="12" fill="#fff5f4"/>
  <path d="M32 14c-2.2 0-4 1.8-4 4v2h-6a2 2 0 0 0-2 2v22a2 2 0 0 0 2 2h20a2 2 0 0 0 2-2V22a2 2 0 0 0-2-2h-6v-2c0-2.2-1.8-4-4-4z" fill="#ef5d50" opacity=".15"/>
  <path d="M32 16a2 2 0 0 1 2 2v3h-4v-3a2 2 0 0 1 2-2z" fill="#ef5d50"/>
  <rect x="22" y="24" width="20" height="16" rx="2" fill="#ef5d50"/>
  <path d="M28 40v6M36 40v6M26 46h12" stroke="#1a2b3c" stroke-width="2.5" stroke-linecap="round"/>
  <circle cx="32" cy="32" r="3" fill="#fff"/>
</svg>
